# File created by Blade
# Date/Time:  Tue Apr 07 20:41:02 2015
# Frame Rate: 120.000 fps
#------------------------------------------------------
:FULLY-SPECIFIED
:DEGREES
1081
root 3.647830 34.471406 -3.691387 21.336163 -17.747068 -54.726144
Spine -0.712374 23.882940 35.617683
Head 8.887998 -1.527466 19.958012
LeftShoulder -18.673051 18.611937 39.696066
LeftArm 114.820444 -76.685182 -82.660170
LeftForeArm 19.213372 -0.000000 30.547588
LeftHand 11.651874 -0.000000 22.811838
LeftHandThumb1 -26.253704 0.000000 33.147579
RightShoulder -6.014776 35.684787 -30.114798
RightArm 62.049858 74.421503 98.006023
RightForeArm 37.635992 0.000000 61.313246
RightHand 1.138862 -0.000000 29.344885
RightHandThumb1 -24.326973 -0.000000 -32.862282
LeftUpLeg -7.676798 1.714871 48.701786
LeftLeg 19.411360 -0.000000 -0.000000
LeftFoot -15.263077 41.887930 -11.113760
LeftToeBase -4.856092 -0.000000 0.000000
RightUpLeg -137.426894 -54.165145 25.270950
RightLeg -13.109390 -0.000000 0.000000
RightFoot 37.325344 -22.192233 15.724480
RightToeBase 22.304404 -0.000000 -0.000000
1082
root 3.648727 34.453022 -3.691354 21.316803 -17.826606 -54.716900
Spine -0.682587 23.851172 35.574349
Head 9.013368 -1.516212 20.239593
LeftShoulder -18.678915 18.563720 39.767940
LeftArm 114.910123 -76.499998 -82.610771
LeftForeArm 19.132244 -0.000000 30.548768
LeftHand 11.645368 -0.000000 22.016961
LeftHandThumb1 -26.253704 0.000000 33.147579
RightShoulder -6.065153 35.817883 -30.144109
RightArm 61.576808 74.395428 97.580401
RightForeArm 37.702732 -0.000000 61.326526
RightHand 1.043267 -0.000000 29.413690
RightHandThumb1 -24.326973 -0.000000 -32.862282
LeftUpLeg -7.724035 1.933881 48.689719
LeftLeg 19.683219 -0.000000 -0.000000
LeftFoot -15.694820 41.548731 -11.621089
LeftToeBase -5.110588 -0.000000 0.000000
RightUpLeg -137.479015 -54.130876 25.297515
RightLeg -13.109724 -0.000000 0.000000
RightFoot 37.251333 -22.195151 15.812477
RightToeBase 22.300120 -0.000000 -0.000000
1083
root 3.650919 34.434941 -3.687441 21.288302 -17.910980 -54.718373
Spine -0.654570 23.796329 35.554641
Head 9.209927 -1.430334 20.527372
LeftShoulder -18.669376 18.540592 39.837569
LeftArm 115.042277 -76.338747 -82.603649
LeftForeArm 19.135698 0.000000 30.550184
LeftHand 11.694839 -0.000000 21.977815
LeftHandThumb1 -26.253704 0.000000 33.147579
RightShoulder -6.048979 35.840970 -30.130546
RightArm 61.525982 74.358175 97.550772
RightForeArm 37.896958 -0.000000 61.313730
RightHand 1.143469 -0.000000 29.184808
RightHandThumb1 -24.326973 -0.000000 -32.862282
LeftUpLeg -7.743864 2.105134 48.667363
LeftLeg 19.933489 -0.000000 -0.000000
LeftFoot -16.078603 41.332529 -12.049545
LeftToeBase -5.348752 -0.000000 0.000000
RightUpLeg -137.536359 -54.071854 25.366165
RightLeg -13.140464 -0.000000 0.000000
RightFoot 37.246756 -22.212629 15.905447
RightToeBase 22.328676 -0.000000 -0.000000
1084
root 3.651446 34.418490 -3.683342 21.258915 -18.010528 -54.737603
Spine -0.624805 23.743775 35.542522
Head 9.456872 -1.333877 20.867650
LeftShoulder -18.612989 18.433944 39.966373
LeftArm 114.622804 -76.197769 -82.091572
LeftForeArm 19.193946 -0.000000 30.602439
LeftHand 11.676551 -0.000000 21.942802
LeftHandThumb1 -26.253704 0.000000 33.147579
RightShoulder -6.085693 36.069801 -30.182605
RightArm 60.840692 74.325152 96.997434
RightForeArm 37.983754 -0.000000 61.277853
RightHand 1.228512 -0.000000 29.096907
RightHandThumb1 -24.326973 -0.000000 -32.862282
LeftUpLeg -7.732382 2.217253 48.644457
LeftLeg 20.154134 -0.000000 -0.000000
LeftFoot -16.413934 41.309462 -12.391843
LeftToeBase -5.535632 -0.000000 0.000000
RightUpLeg -137.507649 -54.020169 25.377763
RightLeg -13.223288 -0.000000 0.000000
RightFoot 37.269207 -22.357890 16.016096
RightToeBase 22.288226 -0.000000 -0.000000
1085
root 3.653791 34.404555 -3.676589 21.244256 -18.096686 -54.753359
Spine -0.629172 23.693953 35.531825
Head 9.722023 -1.285826 21.164228
LeftShoulder -18.583481 18.365987 40.039830
LeftArm 114.234723 -76.057603 -81.565378
LeftForeArm 19.244971 -0.000000 30.658777
LeftHand 11.622653 -0.000000 21.975475
LeftHandThumb1 -26.253704 0.000000 33.147579
RightShoulder -6.082031 36.126220 -30.192384
RightArm 60.635873 74.286075 96.868826
RightForeArm 38.051563 0.000000 61.233876
RightHand 1.100569 -0.000000 29.305464
RightHandThumb1 -24.326973 -0.000000 -32.862282
LeftUpLeg -7.745475 2.383792 48.634330
LeftLeg 20.388920 -0.000000 -0.000000
LeftFoot -16.741587 41.127237 -12.772218
LeftToeBase -5.732341 -0.000000 0.000000
RightUpLeg -137.530634 -53.964486 25.443029
RightLeg -13.273030 -0.000000 0.000000
RightFoot 37.192544 -22.485166 16.079815
RightToeBase 22.354167 -0.000000 -0.000000
1086
root 3.657659 34.390767 -3.666123 21.216026 -18.181726 -54.749704
Spine -0.640315 23.636487 35.509139
Head 9.979257 -1.268392 21.450480
LeftShoulder -18.577788 18.346451 40.079609
LeftArm 114.114502 -75.888281 -81.279477
LeftForeArm 19.333014 -0.000000 30.721499
LeftHand 11.617081 -0.000000 21.915413
LeftHandThumb1 -26.253704 0.000000 33.147579
RightShoulder -6.049437 36.054880 -30.169994
RightArm 60.692411 74.236460 96.957351
RightForeArm 38.218687 -0.000000 61.186032
RightHand 1.186089 0.000000 29.120356
RightHandThumb1 -24.326973 -0.000000 -32.862282
LeftUpLeg -7.762118 2.566798 48.602488
LeftLeg 20.629612 -0.000000 -0.000000
LeftFoot -17.028771 40.927068 -13.081719
LeftToeBase -5.987261 -0.000000 0.000000
RightUpLeg -137.616469 -53.886844 25.559925
RightLeg -13.293600 -0.000000 0.000000
RightFoot 37.143130 -22.491700 16.147815
RightToeBase 22.519183 -0.000000 -0.000000
1087
root 3.661205 34.377747 -3.656202 21.181439 -18.246368 -54.723846
Spine -0.664858 23.564584 35.466962
Head 10.236780 -1.258879 21.722492
LeftShoulder -18.534226 18.284890 40.143594
LeftArm 113.758431 -75.765259 -80.808679
LeftForeArm 19.450132 0.000000 30.846353
LeftHand 11.631200 -0.000000 21.867539
LeftHandThumb1 -26.253704 0.000000 33.147579
RightShoulder -6.018218 35.968913 -30.133116
RightArm 60.981692 74.183048 97.252364
RightForeArm 38.355417 -0.000000 61.115179
RightHand 1.298486 -0.000000 29.090538
RightHandThumb1 -24.326973 -0.000000 -32.862282
LeftUpLeg -7.799094 2.705935 48.555991
LeftLeg 20.863516 -0.000000 -0.000000
LeftFoot -17.280252 40.746978 -13.349103
LeftToeBase -6.106477 -0.000000 0.000000
RightUpLeg -137.758609 -53.801498 25.705219
RightLeg -13.305804 -0.000000 0.000000
RightFoot 37.182890 -22.591758 16.258825
RightToeBase 22.079858 -0.000000 -0.000000
1088
root 3.665603 34.366393 -3.645945 21.133778 -18.297699 -54.699812
Spine -0.669750 23.493512 35.445378
Head 10.450316 -1.263906 21.940917
LeftShoulder -18.470045 18.174429 40.205189
LeftArm 112.811542 -75.744730 -79.750167
LeftForeArm 19.518529 -0.000000 30.987081
LeftHand 11.634151 -0.000000 21.864462
LeftHandThumb1 -26.253704 0.000000 33.147579
RightShoulder -6.059204 35.921174 -30.152939
RightArm 61.388903 74.103109 97.706555
RightForeArm 38.420016 -0.000000 61.044675
RightHand 1.338539 -0.000000 29.157096
RightHandThumb1 -24.326973 -0.000000 -32.862282
LeftUpLeg -7.834171 2.825114 48.514068
LeftLeg 21.087547 -0.000000 -0.000000
LeftFoot -17.506729 40.569209 -13.617608
LeftToeBase -6.327892 -0.000000 0.000000
RightUpLeg -137.854857 -53.757909 25.814441
RightLeg -13.322075 -0.000000 0.000000
RightFoot 37.165636 -22.611584 16.223413
RightToeBase 22.639197 -0.000000 -0.000000
1089
root 3.669722 34.355999 -3.635756 21.080364 -18.328419 -54.669681
Spine -0.673349 23.392805 35.425739
Head 10.629517 -1.251677 22.128132
LeftShoulder -18.438728 18.177404 40.210930
LeftArm 112.390649 -75.741283 -79.193565
LeftForeArm 19.617650 0.000000 31.119603
LeftHand 11.592713 -0.000000 21.942953
LeftHandThumb1 -26.253704 0.000000 33.147579
RightShoulder -6.084476 36.009731 -30.191789
RightArm 61.400738 74.068773 97.796578
RightForeArm 38.440429 -0.000000 61.019588
RightHand 1.290735 -0.000000 29.243785
RightHandThumb1 -24.326973 -0.000000 -32.862282
LeftUpLeg -7.879285 2.893314 48.473576
LeftLeg 21.290059 -0.000000 -0.000000
LeftFoot -17.732820 40.448376 -13.927755
LeftToeBase -6.549363 -0.000000 0.000000
RightUpLeg -137.935638 -53.767453 25.894883
RightLeg -13.312062 -0.000000 0.000000
RightFoot 37.136301 -22.589562 16.228355
RightToeBase 22.623871 -0.000000 -0.000000
1090
root 3.671280 34.347438 -3.626955 21.041478 -18.355177 -54.657251
Spine -0.671139 23.319148 35.423119
Head 10.759800 -1.233142 22.268485
LeftShoulder -18.406556 18.630277 40.026469
LeftArm 113.902813 -75.938850 -80.468856
LeftForeArm 19.670885 -0.000000 31.175923
LeftHand 11.784088 0.000000 21.891686
LeftHandThumb1 -26.253704 0.000000 33.147579
RightShoulder -6.166687 36.172203 -30.292142
RightArm 61.102790 74.031347 97.618660
RightForeArm 38.449783 0.000000 61.000760
RightHand 1.317094 -0.000000 29.274260
RightHandThumb1 -24.326973 -0.000000 -32.862282
LeftUpLeg -7.913613 3.003799 48.461315
LeftLeg 21.460990 -0.000000 -0.000000
LeftFoot -17.933944 40.266112 -14.240121
LeftToeBase -6.758982 -0.000000 0.000000
RightUpLeg -137.996508 -53.778554 25.969313
RightLeg -13.346233 -0.000000 0.000000
RightFoot 37.099460 -22.674100 16.288087
RightToeBase 23.149579 -0.000000 -0.000000
